<?xml version="1.0" standalone="no"?>
<!DOCTYPE svg PUBLIC "-//W3C//DTD SVG 20010904//EN"
 "http://www.w3.org/TR/2001/REC-SVG-20010904/DTD/svg10.dtd">
<svg version="1.0" xmlns="http://www.w3.org/2000/svg"
 width="100.000000pt" height="60.000000pt" viewBox="0 0 1280.000000 720.000000"
 preserveAspectRatio="xMidYMid meet">
<metadata>
Created by potrace 1.15, written by Peter Selinger 2001-2017
</metadata>
<g transform="translate(0.000000,720.000000) scale(0.100000,-0.100000)"
fill="#ffff" stroke="none">
<path d="M2848 7120 c-142 -30 -235 -69 -347 -147 l-65 -45 -65 27 c-113 48
-192 73 -300 95 -349 74 -743 -78 -928 -358 -65 -98 -86 -161 -91 -281 -4
-101 2 -148 34 -265 8 -27 14 -51 14 -52 0 -2 -33 -20 -72 -41 -133 -69 -307
-267 -354 -401 -33 -96 -38 -155 -20 -235 36 -154 134 -278 269 -343 149 -70
279 -69 437 6 48 24 93 41 100 38 6 -2 27 -39 46 -83 20 -44 39 -89 44 -100 5
-11 31 -74 57 -140 27 -66 52 -126 56 -132 11 -18 24 -16 30 5 4 9 17 35 29
57 48 83 83 140 90 150 4 6 48 64 97 130 84 114 247 284 356 372 148 120 372
246 552 312 169 62 403 111 530 111 51 0 56 -2 91 -42 20 -24 76 -83 123 -133
47 -49 98 -111 112 -136 31 -52 57 -131 57 -171 0 -35 12 -36 31 -2 21 40 121
128 175 154 33 16 73 25 120 28 68 4 72 3 92 -23 44 -55 46 -122 7 -181 -41
-63 -232 -118 -495 -144 -58 -6 -123 -15 -145 -20 -72 -17 -72 -17 -67 50 4
60 4 61 -36 99 -41 40 -98 64 -187 80 -44 8 -48 8 -30 -5 162 -115 177 -134
157 -201 -9 -30 -84 -159 -105 -179 -2 -3 -59 3 -127 13 -198 27 -366 0 -545
-89 -167 -82 -381 -273 -596 -533 -68 -82 -157 -184 -197 -227 -81 -84 -100
-93 -262 -124 -72 -14 -481 -60 -585 -66 -70 -4 -70 -25 0 -67 124 -75 280
-101 436 -70 84 16 149 46 265 120 103 65 72 56 469 141 134 28 363 31 485 5
105 -22 232 -81 325 -150 56 -42 78 -67 113 -127 23 -41 51 -105 62 -142 23
-75 36 -207 26 -260 l-6 -35 -178 -22 c-240 -30 -375 -67 -536 -148 -224 -112
-400 -310 -466 -522 -24 -80 -23 -146 4 -198 25 -48 99 -115 156 -141 51 -22
63 -24 155 -18 104 6 172 24 266 71 337 169 605 450 699 735 12 36 25 68 28
72 9 10 209 -34 307 -67 93 -32 214 -90 294 -142 79 -52 194 -172 235 -246 57
-105 71 -159 70 -282 -1 -109 -17 -186 -61 -298 -18 -44 -36 -47 -115 -17
-110 40 -358 97 -513 116 -93 12 -87 6 -80 90 l7 75 -143 -3 -144 -3 1 -30 c0
-16 4 -49 9 -71 l7 -42 -103 -6 c-604 -40 -1111 -254 -1502 -634 -59 -58 -133
-137 -165 -176 -93 -113 -89 -111 -187 -129 -50 -9 -124 -21 -165 -26 -154
-20 -341 -75 -443 -129 -51 -28 -107 -88 -107 -117 0 -33 59 -92 122 -124 125
-61 364 -136 412 -129 16 3 14 7 -13 35 -44 46 -40 73 16 122 55 49 103 66
118 43 6 -8 24 -33 40 -55 125 -168 811 -292 1807 -329 481 -17 1053 7 1413
62 602 90 737 130 806 239 16 24 26 48 22 54 -10 16 126 2 175 -18 30 -12 44
-25 49 -43 5 -22 -1 -33 -43 -71 l-49 -44 60 7 c133 15 331 81 410 135 38 26
40 30 40 81 -1 46 -5 56 -30 76 -66 53 -224 120 -336 143 -56 12 -217 46 -291
61 -55 12 -59 15 -127 101 -100 125 -249 271 -371 365 -101 77 -265 184 -303
198 -25 8 -17 28 14 36 49 14 167 80 244 137 285 212 428 468 426 762 -2 173
-44 299 -148 435 -38 49 -43 60 -30 68 9 4 51 35 95 67 139 103 264 267 361
473 23 48 41 89 41 92 0 3 11 29 23 58 13 29 30 69 37 88 41 106 130 268 188
340 134 167 285 286 445 351 56 22 58 24 55 57 -3 30 -12 41 -61 76 -56 39
-60 40 -140 41 -77 0 -164 -18 -224 -47 -13 -6 -25 -9 -28 -6 -8 7 106 112
186 169 38 28 69 54 69 58 0 16 -56 64 -104 88 -66 34 -142 41 -198 18 -73
-29 -178 -104 -296 -213 l-113 -105 6 39 c11 64 41 197 91 397 14 59 23 114
20 122 -7 19 -96 20 -179 4 -71 -15 -124 -64 -173 -164 -34 -70 -43 -102 -69
-245 -7 -41 -16 -82 -18 -90 -3 -8 -8 -28 -12 -44 l-6 -29 -62 60 c-68 66
-118 97 -145 88 -10 -3 -33 -20 -52 -38 -45 -42 -175 -108 -269 -138 l-73 -22
6 -40 c8 -47 38 -108 79 -159 36 -45 100 -68 189 -68 32 0 58 -2 58 -5 0 -3
-11 -52 -25 -110 -27 -117 -49 -166 -94 -214 -28 -30 -34 -32 -87 -29 -53 3
-60 6 -76 33 -17 30 -17 34 3 115 45 183 -4 305 -153 381 -44 22 -167 39 -169
23 -1 -5 -2 -24 -4 -41 -9 -103 -22 -160 -62 -273 -88 -247 -88 -246 -88 -370
0 -103 3 -123 28 -187 29 -74 86 -150 94 -125 3 7 0 18 -5 25 -22 26 -62 171
-62 222 0 64 35 173 101 314 27 57 64 141 82 187 17 46 38 84 45 84 22 0 65
-27 97 -60 30 -31 30 -32 25 -128 -3 -53 -5 -143 -5 -199 0 -132 10 -145 117
-151 84 -5 118 8 186 72 92 87 132 220 131 435 0 74 -3 140 -6 147 -7 19 -33
17 -84 -6 -50 -22 -94 -25 -125 -7 -33 19 -84 65 -84 76 0 5 26 17 58 26 31 9
104 39 161 66 57 27 110 49 117 49 18 0 98 -125 118 -184 9 -27 16 -71 16 -98
0 -72 22 -63 53 22 23 64 37 130 53 250 18 137 31 207 47 250 44 118 112 200
168 200 24 0 29 -3 25 -18 -3 -9 -12 -67 -21 -127 -41 -310 -79 -481 -144
-642 -11 -29 -17 -53 -13 -53 4 0 55 57 112 127 203 247 328 365 471 443 80
43 112 49 147 24 30 -21 28 -31 -15 -67 -144 -123 -303 -294 -441 -474 -83
-110 -103 -143 -86 -143 3 0 60 51 126 113 147 138 250 216 347 265 66 32 82
37 151 37 50 0 83 -5 93 -13 14 -12 6 -21 -72 -72 -114 -75 -215 -171 -300
-284 -90 -121 -119 -172 -249 -432 -117 -233 -198 -365 -277 -452 -76 -84
-243 -202 -287 -202 -9 0 -64 24 -120 53 -144 73 -217 100 -363 133 -158 35
-413 17 -476 -35 -11 -9 -22 -33 -26 -53 -5 -35 -2 -41 60 -105 78 -81 168
-132 287 -164 118 -31 342 -32 515 0 l120 21 28 -32 c34 -40 109 -195 128
-263 9 -33 14 -104 14 -210 0 -150 -2 -165 -29 -245 -35 -104 -46 -127 -105
-210 -89 -126 -244 -256 -398 -334 -40 -20 -82 -36 -93 -36 -11 0 -44 10 -75
22 -64 27 -63 22 -5 143 115 240 88 520 -76 764 -39 58 -141 157 -212 205 -81
55 -232 126 -327 154 -85 25 -229 52 -277 52 l-35 0 -6 93 c-23 350 -186 586
-471 679 -194 64 -501 62 -838 -5 -38 -8 -68 -11 -68 -7 0 19 474 471 536 512
133 87 264 133 453 158 93 13 321 16 391 5 42 -6 49 -3 100 36 86 66 184 106
367 150 343 82 417 108 489 171 51 45 94 138 94 206 0 73 -69 166 -149 199
-20 9 -69 16 -111 16 -84 1 -105 -7 -207 -79 -34 -24 -66 -44 -71 -44 -6 0
-14 15 -17 33 -13 56 -42 102 -136 213 -50 60 -88 109 -83 111 5 1 66 14 136
27 144 28 224 62 270 115 135 153 19 361 -201 361 -207 -1 -322 -155 -199
-266 32 -30 87 -56 99 -48 7 4 8 9 1 13 -5 3 -21 24 -36 45 -30 44 -35 106
-11 130 21 21 80 36 139 36 41 0 53 -5 81 -33 79 -79 66 -214 -24 -254 -102
-44 -142 -55 -221 -60 l-85 -5 -47 61 c-73 92 -123 174 -157 256 -41 97 -41
115 2 115 80 0 195 56 251 122 39 45 81 141 91 209 8 56 -16 155 -55 224 -127
222 -426 330 -732 265z m-783 -134 c133 -24 230 -63 361 -145 l91 -58 58 49
c151 127 343 181 531 149 146 -25 316 -134 364 -234 26 -53 28 -173 4 -220
-37 -71 -129 -129 -209 -131 l-50 -1 -12 85 c-6 47 -12 127 -12 178 -1 92 -1
93 -23 86 -103 -31 -188 -140 -188 -240 0 -51 49 -122 110 -160 55 -34 57 -37
80 -112 25 -82 98 -231 150 -307 18 -26 28 -50 24 -54 -5 -5 -72 -16 -149 -25
-77 -10 -158 -22 -180 -27 -22 -5 -80 -18 -130 -30 -201 -46 -404 -128 -549
-223 -181 -117 -395 -328 -589 -580 -15 -20 -32 -36 -37 -36 -5 0 -25 28 -46
63 -21 34 -60 95 -87 134 l-49 73 11 50 c23 105 4 181 -57 232 -48 40 -239 77
-256 49 -3 -5 2 -19 12 -32 17 -22 94 -151 157 -262 15 -26 25 -54 22 -61 -3
-8 -41 -31 -83 -53 -71 -34 -85 -38 -153 -37 -180 3 -314 107 -362 281 -24 85
-24 121 -1 205 27 97 73 162 163 228 80 59 265 156 319 166 17 4 32 10 35 14
2 4 -12 39 -31 78 -56 112 -77 273 -54 408 13 70 14 74 68 184 86 175 237 282
447 315 109 18 205 18 300 1z m2243 -3401 c40 -9 101 -28 135 -41 65 -26 167
-84 167 -95 0 -10 -34 -17 -142 -31 -154 -19 -333 12 -485 84 -51 24 -63 34
-63 52 0 47 33 56 200 51 63 -1 148 -10 188 -20z m-1243 -417 c-36 -169 -231
-446 -399 -567 -177 -128 -273 -164 -414 -159 -93 3 -94 3 -127 39 -62 68 -58
179 12 288 58 91 108 145 195 211 179 135 419 218 636 219 l104 1 -7 -32z m53
-970 c7 -7 12 -18 12 -25 0 -15 -75 -37 -102 -29 -22 5 -181 -24 -265 -49 -29
-8 -76 -21 -104 -29 -149 -42 -376 -149 -508 -238 -145 -98 -385 -320 -473
-438 -76 -102 -138 -232 -138 -288 0 -51 53 -114 123 -146 52 -24 218 -59 432
-91 205 -31 503 -65 565 -65 67 0 36 16 -55 29 -396 54 -617 103 -787 175 -82
35 -77 92 25 306 64 135 226 338 348 437 205 167 427 275 674 329 61 12 199
31 308 41 l197 18 0 37 c0 32 3 38 20 38 12 0 33 -6 48 -14 15 -7 54 -17 87
-20 135 -16 408 -92 478 -133 12 -7 -51 -90 -135 -179 -78 -81 -87 -94 -68
-94 18 0 203 146 246 193 49 54 51 54 174 -11 383 -204 671 -471 800 -744 55
-115 33 -236 -54 -299 -81 -60 -261 -105 -613 -154 -56 -8 -112 -17 -125 -20
-13 -3 -133 -15 -268 -27 -205 -18 -320 -21 -705 -22 -293 0 -509 4 -595 12
-74 7 -198 17 -275 22 -137 10 -167 13 -410 46 -115 16 -320 57 -435 87 -116
30 -230 89 -268 137 -45 59 -38 103 39 237 170 293 461 562 791 729 282 142
503 201 918 243 41 5 77 9 81 10 3 0 10 -4 17 -11z"/>
<path d="M2965 2003 c-258 -56 -520 -225 -687 -443 -49 -64 -148 -249 -148
-276 0 -8 -4 -22 -9 -32 -11 -19 -41 -155 -41 -183 0 -14 16 -23 68 -38 37
-11 83 -22 103 -25 l36 -6 12 88 c29 228 104 401 245 567 103 121 197 195 379
294 42 24 77 47 77 52 0 9 -2 10 -35 2z"/>
<path d="M3583 1869 c-78 -50 -65 -186 24 -242 51 -33 93 -40 142 -27 43 11
111 70 111 95 0 21 -14 19 -56 -10 -54 -37 -85 -33 -139 18 -34 33 -45 51 -45
74 0 32 33 83 54 83 7 0 21 7 32 15 33 25 -83 20 -123 -6z"/>
<path d="M4177 1856 c4 -7 43 -44 87 -82 143 -126 282 -319 388 -539 50 -104
52 -134 12 -176 -74 -79 -337 -174 -564 -204 -110 -14 -169 -28 -164 -37 4 -5
20 -7 38 -4 17 3 94 13 171 21 412 44 605 98 680 187 30 35 28 51 -12 151 -71
175 -152 297 -287 433 -88 88 -249 218 -313 253 -29 15 -46 14 -36 -3z"/>
<path d="M5863 6839 c-65 -25 -123 -78 -166 -150 l-33 -57 -34 35 c-112 118
-363 130 -431 20 -35 -58 -43 -105 -23 -149 16 -36 87 -111 144 -151 14 -10
19 -15 11 -11 -9 5 -12 3 -7 -5 4 -6 11 -9 16 -6 5 3 42 -11 82 -31 40 -20
151 -65 247 -100 96 -35 182 -71 191 -79 15 -14 19 -14 29 -1 19 22 8 31 -77
66 -42 17 -88 36 -102 42 -14 6 -33 13 -42 15 -41 7 -229 87 -296 126 -40 23
-93 63 -118 89 -41 44 -44 51 -44 104 0 50 3 59 33 89 57 57 141 67 258 29 52
-16 119 -76 138 -123 10 -22 20 -31 36 -31 18 0 24 7 28 38 9 53 65 141 114
178 75 57 206 67 276 20 36 -24 60 -93 54 -156 -2 -28 -5 -23 -11 27 -5 35
-12 60 -17 57 -5 -3 -6 2 -3 11 7 18 -14 47 -29 38 -6 -3 -7 -1 -3 5 11 19
-38 32 -114 32 -53 0 -77 -5 -107 -22 -47 -28 -113 -93 -113 -112 0 -7 -6 -18
-13 -24 -7 -6 -14 -23 -15 -37 -3 -43 -20 -65 -51 -65 -23 0 -31 7 -46 41 -15
33 -73 91 -83 81 -1 -1 -16 5 -34 14 -27 14 -30 14 -25 1 4 -11 1 -14 -8 -11
-7 3 -16 11 -18 19 -4 9 -25 12 -69 11 -63 -2 -93 -11 -83 -25 2 -5 -6 -7 -18
-6 -12 2 -28 -4 -35 -11 -7 -8 -10 -14 -7 -14 4 0 -1 -7 -9 -16 -19 -18 -21
-55 -4 -72 9 -9 9 -12 -2 -12 -9 0 -6 -6 8 -16 12 -8 22 -21 22 -28 0 -14 81
-76 99 -76 6 0 11 -4 11 -8 0 -13 50 -33 62 -26 7 4 8 2 4 -4 -4 -7 -1 -12 9
-12 9 0 23 -7 31 -15 16 -16 39 -21 30 -7 -3 5 1 9 9 9 11 0 12 -4 5 -13 -8
-9 -2 -15 21 -23 17 -6 35 -8 40 -5 5 3 9 0 9 -6 0 -7 8 -9 21 -5 13 5 19 3
15 -3 -3 -5 2 -13 11 -16 9 -4 20 -1 25 6 6 10 8 10 8 1 0 -7 6 -13 14 -13 8
0 21 -7 29 -15 8 -8 29 -17 45 -20 17 -3 56 -18 87 -34 30 -16 55 -25 55 -20
0 5 4 9 9 9 16 0 6 -45 -15 -62 -20 -16 -69 -15 -59 2 7 12 -47 32 -58 21 -16
-16 1 -28 63 -41 33 -7 60 -17 60 -22 0 -6 6 -8 14 -5 7 3 19 0 26 -6 10 -9
11 -9 6 1 -5 7 -1 12 9 12 10 0 13 5 9 13 -4 6 -4 9 1 5 5 -5 23 14 42 42 38
57 39 61 16 54 -10 -3 -8 1 5 8 12 8 19 18 15 23 -4 4 -3 5 4 2 14 -9 48 76
38 94 -5 7 -4 10 2 6 6 -4 14 0 17 9 8 22 8 26 -3 19 -5 -3 -13 0 -17 6 -4 7
-3 9 3 6 14 -9 29 11 38 51 4 18 9 31 12 28 10 -10 -29 -140 -63 -211 -33 -68
-118 -191 -172 -248 -22 -24 -24 -29 -12 -37 19 -12 85 59 164 175 63 93 85
146 122 286 22 86 25 114 19 178 -12 141 -35 189 -109 222 -55 25 -155 24
-223 -2z"/>
<path d="M7270 6084 c-158 -42 -269 -150 -328 -318 -20 -59 -25 -96 -30 -217
-4 -125 -1 -157 17 -230 66 -266 245 -429 471 -429 142 0 258 60 352 181 92
118 138 269 138 448 0 300 -133 505 -367 566 -71 19 -181 18 -253 -1z m197
-514 c51 -31 67 -72 68 -175 0 -81 -3 -96 -30 -150 -22 -43 -41 -65 -67 -80
-35 -18 -38 -19 -71 -3 -72 35 -117 195 -87 317 23 96 109 139 187 91z"/>
<path d="M8300 6084 c-158 -43 -269 -150 -328 -318 -34 -98 -43 -316 -17 -432
47 -218 186 -384 360 -429 330 -85 605 194 605 614 0 354 -195 583 -495 580
-38 0 -95 -7 -125 -15z m197 -514 c51 -31 67 -72 68 -175 0 -79 -3 -97 -28
-147 -64 -130 -152 -130 -209 0 -26 58 -36 183 -18 238 30 93 112 130 187 84z"/>
<path d="M4660 6079 c-13 -6 -33 -18 -43 -27 -24 -21 -67 -105 -67 -129 0 -12
-9 -7 -31 20 -81 99 -189 87 -219 -24 -7 -23 -9 -56 -6 -73 10 -50 55 -114
109 -158 29 -22 51 -45 49 -50 -1 -5 2 -7 7 -4 5 4 51 -18 102 -49 50 -30 93
-55 95 -55 2 0 4 6 4 14 0 14 -33 37 -154 107 -130 76 -186 145 -186 230 0 66
18 96 64 104 58 11 112 -28 137 -97 7 -21 18 -38 24 -38 6 0 17 23 24 52 28
122 97 181 169 144 33 -17 36 -27 46 -139 5 -65 -16 -214 -41 -292 -9 -27 -34
-87 -55 -133 -43 -90 -45 -118 -5 -55 67 106 127 312 127 435 0 104 -17 170
-50 201 -32 28 -58 33 -100 16z"/>
<path d="M9637 6083 c-3 -4 -17 -48 -31 -98 -34 -113 -138 -416 -142 -413 -1
2 4 107 11 233 8 127 15 236 15 243 0 9 -58 12 -255 12 -197 0 -255 -3 -255
-12 0 -7 7 -103 15 -213 8 -110 20 -359 27 -552 l12 -353 203 0 203 0 1 88 c0
48 3 104 7 126 l7 38 42 -76 c36 -63 127 -201 152 -229 4 -4 68 20 142 53 73
34 149 67 167 76 l33 14 -80 76 c-88 83 -211 225 -211 244 0 6 25 57 56 113
82 148 287 548 283 551 -2 2 -85 20 -184 40 -99 21 -187 39 -197 42 -9 3 -18
1 -21 -3z"/>
<path d="M6445 6055 c-211 -46 -368 -192 -419 -392 -20 -78 -21 -247 -1 -332
48 -201 224 -374 422 -416 123 -26 324 -12 342 24 10 20 45 201 39 206 -2 2
-22 -2 -43 -10 -93 -33 -188 -12 -256 55 -67 67 -84 146 -53 251 34 115 144
177 292 166 l74 -6 -5 47 c-4 26 -9 124 -13 219 -4 94 -10 177 -14 184 -13 19
-278 22 -365 4z"/>
<path d="M12060 6055 c-238 -54 -389 -193 -445 -410 -20 -78 -20 -262 0 -340
49 -185 186 -315 400 -377 72 -21 99 -23 270 -22 105 1 203 6 220 11 38 12 41
24 54 243 6 96 14 192 17 213 l7 37 -158 0 -157 0 6 -42 c13 -89 27 -251 22
-255 -12 -12 -95 10 -143 37 -72 41 -105 99 -105 184 0 110 50 186 162 242 62
31 166 42 238 26 l43 -10 -6 51 c-3 29 -12 131 -20 227 -9 96 -19 178 -24 183
-16 16 -311 18 -381 2z"/>
<path d="M10080 6047 c0 -34 40 -923 46 -1014 l6 -103 203 0 203 0 6 113 c3
61 8 182 11 267 8 220 24 560 31 663 l6 87 -256 0 c-208 0 -256 -3 -256 -13z"/>
<path d="M10644 5993 c10 -109 34 -506 47 -795 l12 -268 117 0 117 0 7 192 c4
106 8 194 11 196 6 6 226 -154 388 -281 76 -59 141 -106 146 -103 4 3 9 70 10
148 2 184 19 613 31 793 5 77 10 150 10 163 0 22 -2 22 -135 22 l-135 0 6
-125 c4 -69 4 -125 1 -125 -4 0 -66 56 -138 125 l-132 125 -185 0 -184 0 6
-67z"/>
<path d="M4667 6038 c-15 -5 -25 -13 -22 -18 3 -4 -2 -10 -10 -13 -16 -7 -49
-75 -60 -124 -3 -18 -11 -35 -16 -39 -14 -8 -50 6 -43 17 7 12 -35 81 -46 74
-5 -3 -10 -1 -12 5 -5 16 -50 21 -87 9 -25 -8 -30 -14 -20 -20 11 -7 10 -9 -3
-9 -14 0 -18 -9 -18 -39 0 -22 5 -43 10 -46 6 -4 9 -14 8 -23 -2 -11 3 -17 13
-16 11 1 15 -5 12 -16 -6 -22 28 -43 54 -34 16 6 16 5 -2 -10 -17 -15 -17 -17
-3 -12 10 3 17 2 15 -2 -1 -4 3 -8 8 -9 6 0 9 4 7 10 -2 6 3 5 12 -2 8 -7 12
-19 9 -27 -3 -8 1 -14 9 -14 8 0 23 -9 33 -20 20 -22 40 -27 30 -7 -4 6 -1 5
7 -4 7 -8 29 -24 48 -35 19 -10 41 -26 48 -34 12 -13 13 -13 6 0 -7 13 -5 13
8 2 17 -13 15 -34 -5 -60 -8 -9 -13 -8 -24 5 -13 16 -13 16 -3 -5 7 -13 14
-21 17 -18 4 3 11 1 18 -4 8 -7 15 -2 24 16 9 20 9 24 -1 18 -7 -4 -3 3 10 15
19 19 21 25 10 39 -10 12 -10 14 0 8 13 -8 30 26 37 78 2 17 5 31 6 31 5 0 11
60 16 153 3 56 1 102 -4 102 -4 0 -9 14 -9 31 -1 33 -20 52 -42 44 -7 -3 -10
0 -7 5 7 12 -1 12 -38 -2z"/>
<path d="M3172 5679 c-43 -22 -86 -65 -77 -79 3 -4 35 1 72 11 45 12 103 19
173 19 l105 0 -55 32 c-73 43 -155 49 -218 17z"/>
<path d="M2425 5421 c-27 -16 -60 -42 -71 -58 -21 -28 -84 -147 -84 -158 0
-15 26 2 99 65 91 78 147 116 185 126 35 8 43 24 21 41 -31 22 -95 16 -150
-16z"/>
<path d="M11955 4876 c-92 -43 -194 -183 -226 -310 l-11 -46 -37 58 c-62 96
-155 152 -262 160 -159 11 -247 -79 -257 -264 -4 -72 -1 -89 21 -138 l26 -56
-80 0 c-296 0 -519 -155 -584 -407 -19 -74 -19 -249 0 -332 49 -205 235 -384
439 -420 131 -24 311 -6 326 33 12 30 44 196 38 201 -2 2 -22 -2 -43 -10 -161
-57 -325 55 -325 223 0 15 7 53 16 83 34 114 144 177 291 166 l73 -5 -5 81
c-3 45 -7 110 -8 144 -3 55 -8 67 -42 110 l-39 48 49 -45 c28 -25 50 -49 50
-55 1 -17 15 -35 28 -35 7 0 3 7 -7 15 -11 8 -15 15 -10 15 6 0 26 -12 45 -26
52 -39 251 -155 375 -218 101 -51 164 -96 136 -96 -6 0 -14 4 -17 10 -8 12
-141 91 -152 89 -4 -1 -17 -1 -28 0 -15 1 -17 3 -6 10 21 14 -9 21 -34 8 -17
-9 -18 -8 -8 5 11 12 6 18 -25 33 -20 11 -41 20 -47 21 -22 2 -45 17 -40 24 6
10 -24 22 -36 14 -5 -3 -9 -1 -9 5 0 11 -67 54 -86 54 -7 0 -10 5 -7 10 4 6 1
7 -7 2 -8 -5 -11 -4 -6 3 3 6 2 13 -3 16 -5 4 -12 2 -15 -2 -8 -13 33 -53 47
-46 7 4 9 3 4 -1 -4 -5 0 -17 10 -27 17 -19 38 -24 46 -10 2 4 3 2 1 -4 -6
-26 113 -108 142 -98 14 4 16 3 5 -4 -11 -8 -8 -13 15 -28 16 -10 35 -23 43
-28 12 -9 13 -8 7 3 -6 9 -5 12 5 9 8 -3 13 -11 12 -17 -2 -6 1 -11 7 -11 5 0
26 -11 46 -25 20 -14 48 -25 61 -25 13 0 22 -4 19 -9 -8 -12 34 -28 69 -25 17
1 24 0 18 -3 -7 -2 -13 -9 -13 -14 0 -6 4 -8 9 -4 5 3 17 -2 25 -11 9 -8 16
-12 16 -8 0 3 8 0 17 -7 15 -12 16 -12 10 4 -4 11 -3 16 3 12 6 -3 13 2 17 11
4 10 2 19 -5 22 -7 2 -9 8 -6 14 4 7 9 6 14 -2 5 -7 17 5 34 35 30 54 31 59
14 50 -7 -4 -4 1 6 9 11 9 17 16 13 16 -4 0 -2 10 5 23 7 12 11 28 9 36 -1 7
2 10 7 7 5 -3 17 22 27 55 9 33 19 58 22 55 17 -17 -115 -317 -200 -453 -37
-59 -41 -83 -14 -83 7 0 32 33 56 73 25 39 50 79 56 87 21 26 104 217 134 308
51 153 86 368 85 517 -3 277 -41 385 -152 428 -61 24 -137 22 -197 -7z m204
-54 c57 -30 79 -84 92 -232 6 -69 9 -165 6 -215 -5 -83 -50 -341 -62 -353 -8
-8 -6 14 9 91 43 216 50 323 34 492 -9 100 -25 152 -58 187 -24 27 -115 49
-147 37 -14 -5 -28 -7 -33 -4 -5 3 -25 -3 -44 -12 -34 -17 -49 -39 -50 -73 -1
-8 -10 -15 -21 -15 -24 0 -78 -98 -106 -190 -10 -33 -18 -51 -18 -39 -2 52 61
194 116 262 71 88 186 114 282 64z m-633 -160 c74 -37 156 -134 139 -162 -3
-6 -1 -10 4 -10 6 0 11 -5 11 -11 0 -8 -5 -7 -15 1 -9 7 -14 19 -11 26 6 14
-17 37 -28 27 -3 -4 -5 2 -4 13 2 10 -1 21 -7 22 -5 2 -15 8 -22 14 -7 5 -18
6 -24 2 -8 -4 -9 -3 -5 4 4 7 1 12 -8 12 -8 0 -19 8 -24 17 -6 9 -30 22 -55
28 -26 6 -44 8 -41 4 2 -4 -9 -4 -25 1 -20 5 -38 4 -56 -6 -14 -7 -32 -13 -38
-11 -7 1 -11 -4 -9 -11 1 -8 -2 -11 -7 -8 -5 4 -16 0 -24 -8 -8 -8 -17 -13
-20 -10 -3 4 -9 -11 -13 -32 -3 -22 -10 -43 -14 -49 -14 -20 -15 -128 0 -133
5 -2 8 -7 5 -12 -6 -10 34 -80 46 -80 5 0 8 -3 7 -8 -5 -13 40 -63 47 -52 9
14 25 3 19 -13 -5 -14 66 -83 103 -100 13 -6 23 -13 23 -17 0 -4 17 -15 38
-26 20 -10 44 -25 53 -32 33 -26 91 -51 107 -45 15 4 15 3 2 -6 -13 -9 -13
-11 3 -11 9 0 17 -5 17 -11 0 -6 7 -8 16 -5 8 3 12 2 9 -4 -3 -6 3 -10 14 -10
12 0 21 -3 21 -7 0 -5 21 -17 48 -27 26 -11 50 -24 53 -29 4 -5 17 -10 30 -11
13 0 24 -5 24 -11 0 -5 20 -30 45 -54 l45 -43 -49 41 c-26 22 -119 77 -205
122 -306 158 -469 290 -526 423 -28 66 -28 70 -18 152 12 95 40 144 104 177
51 26 138 18 215 -21z"/>
<path d="M9493 4286 c-122 -28 -217 -96 -258 -183 -26 -54 -37 -147 -25 -211
16 -90 53 -154 133 -229 172 -164 175 -167 182 -206 11 -58 -1 -86 -43 -104
-35 -15 -91 -14 -149 3 -21 6 -22 5 -11 -32 6 -22 18 -73 27 -114 l16 -74 45
-9 c76 -14 219 -3 271 20 66 30 123 85 149 145 18 43 22 65 18 124 -4 63 -11
83 -61 176 -32 58 -57 118 -57 133 0 64 54 101 133 91 l49 -7 -5 53 c-4 29 -9
133 -13 230 l-7 177 -51 11 c-84 19 -273 22 -343 6z"/>
<path d="M6920 4258 c0 -7 7 -94 15 -193 8 -99 19 -319 25 -490 6 -170 13
-338 16 -372 l6 -63 129 0 129 0 1 63 c1 34 4 109 8 166 l6 105 137 -183 136
-182 129 188 128 187 3 -172 2 -172 134 0 133 0 7 248 c4 136 11 326 16 422 5
96 12 239 16 318 l7 142 -189 0 -190 0 -88 -175 c-49 -96 -94 -179 -101 -185
-14 -12 -84 109 -150 258 l-43 97 -211 3 c-165 2 -211 0 -211 -10z"/>
<path d="M8154 4218 c3 -29 8 -107 11 -173 10 -194 43 -494 64 -577 61 -237
196 -341 461 -355 122 -7 244 7 356 41 l79 23 6 364 c3 200 10 446 14 547 l8
182 -183 0 -182 0 6 -87 c18 -239 26 -438 26 -639 0 -244 3 -234 -64 -234 -18
0 -48 10 -67 23 -62 42 -64 54 -64 520 l0 417 -238 0 -238 0 5 -52z"/>
<path d="M9960 4253 c0 -10 11 -263 25 -563 14 -300 25 -546 25 -547 0 -2 92
-3 204 -3 l204 0 6 113 c3 61 8 184 11 272 7 197 23 540 31 658 l6 87 -256 0
c-237 0 -256 -1 -256 -17z"/>
<path d="M3115 2579 c-33 -17 -72 -43 -87 -57 -55 -51 -49 -52 217 -52 266 0
266 0 225 53 -35 44 -123 79 -214 84 -76 4 -85 2 -141 -28z"/>
<path d="M660 825 c0 -18 133 -68 415 -154 143 -44 484 -111 765 -151 673 -94
1548 -109 2330 -39 124 11 250 24 280 29 30 5 82 11 115 15 138 15 404 66 580
110 207 53 444 130 467 153 15 15 8 15 -77 -4 -38 -8 -104 -21 -145 -29 -41
-8 -140 -28 -220 -44 -358 -73 -799 -130 -1250 -162 -251 -17 -917 -23 -1200
-10 -554 26 -1004 78 -1540 180 -145 28 -373 76 -445 95 -63 17 -75 19 -75 11z"/>
<path d="M4875 514 c-131 -25 -370 -62 -440 -69 -38 -4 -97 -11 -130 -15 -33
-5 -184 -16 -335 -24 -151 -9 -363 -21 -471 -27 -142 -8 -260 -8 -435 1 -362
17 -787 41 -804 45 -8 2 -71 9 -140 15 -116 10 -407 46 -560 70 -81 12 -127
13 -115 2 12 -10 101 -42 205 -72 41 -12 95 -28 120 -35 42 -12 77 -20 258
-60 102 -23 216 -41 457 -72 202 -26 229 -27 705 -27 540 0 734 12 1035 64
131 23 432 96 550 134 28 8 84 26 125 39 40 13 76 29 78 36 4 13 -12 13 -103
-5z"/>
</g>
</svg>
