<svg version="1.0" xmlns="http://www.w3.org/2000/svg"
 width="225.000000pt" height="25.000000pt" viewBox="0 0 225.000000 225.000000"
 preserveAspectRatio="xMidYMid meet">
<metadata>
Created by potrace 1.15, written by Peter Selinger 2001-2017
</metadata>
<g transform="translate(0.000000,225.000000) scale(0.100000,-0.100000)"
fill="#000" stroke="none">
<path d="M708 2239 c-15 -8 -18 -25 -18 -99 l0 -90 50 0 50 0 0 50 0 50 207
-2 207 -3 -3 -47 -3 -48 54 0 53 0 -3 87 c-2 67 -7 91 -19 101 -21 15 -548 17
-575 1z"/>
<path d="M360 1933 c-23 -9 -61 -45 -76 -75 -9 -17 -14 -59 -14 -113 l0 -85
725 0 725 0 0 85 c0 93 -10 123 -55 165 l-27 25 -631 2 c-348 1 -639 -1 -647
-4z"/>
<path d="M300 1550 c0 -3 20 -342 45 -755 25 -412 45 -753 45 -757 0 -4 7 -14
16 -22 14 -14 81 -16 589 -16 492 0 576 2 588 15 10 10 17 46 21 112 4 54 9
121 12 150 l5 52 -38 6 c-72 12 -131 36 -187 75 -32 22 -59 40 -61 40 -3 0 -5
-69 -5 -154 l0 -155 -26 -20 c-35 -27 -57 -26 -91 3 l-28 24 -5 704 -5 703
-183 0 -182 0 0 -692 c0 -486 -3 -699 -11 -716 -11 -24 -47 -47 -73 -47 -7 0
-25 9 -40 21 l-26 20 -2 705 -3 705 -178 2 c-97 1 -177 0 -177 -3z"/>
<path d="M1334 1551 c-2 -2 -4 -107 -4 -233 l0 -229 57 41 c65 46 163 80 233
80 l48 0 6 73 c3 39 8 117 12 172 l6 100 -177 0 c-97 0 -179 -2 -181 -4z"/>
<path d="M1553 1096 c-108 -35 -187 -108 -224 -205 -30 -79 -23 -194 15 -269
33 -64 91 -123 154 -154 40 -19 63 -23 147 -23 85 0 106 4 143 23 67 35 129
98 159 161 24 48 28 68 28 141 0 76 -3 93 -33 152 -36 75 -89 124 -166 158
-60 27 -167 35 -223 16z m34 -198 l52 -52 55 52 c60 57 95 66 120 31 19 -28
12 -45 -47 -106 l-51 -52 57 -60 c49 -51 56 -63 48 -83 -4 -13 -20 -27 -35
-32 -24 -9 -32 -5 -84 47 l-58 57 -49 -50 c-61 -62 -91 -72 -117 -40 -10 12
-18 29 -18 37 0 8 25 40 55 72 l54 57 -54 54 c-57 57 -65 78 -39 104 27 28 56
18 111 -36z"/>
</g>
</svg>
